name C:\Users\u0101727\Documents\MyRepositories\upper-imu-dc\Results\main_tracking\Case_48\ABD01_angularVelocities_bodyFrame.mot
datacolumns 4
datarows 70
range 2.81000000 3.50000000
endheader 
time	radius_imu_x	radius_imu_y	radius_imu_z	
          2.81000000	          0.11081998	         -0.20282185	          0.06054174	
          2.82000000	          0.10974450	         -0.20356392	          0.06021569	
          2.83000000	          0.11024441	         -0.20459714	          0.06315661	
          2.84000000	          0.11121188	         -0.20650343	          0.06723453	
          2.85000000	          0.11213548	         -0.20929186	          0.07152505	
          2.86000000	          0.11283978	         -0.21281544	          0.07554823	
          2.87000000	          0.11325342	         -0.21678038	          0.07906244	
          2.88000000	          0.11333056	         -0.22086938	          0.08192703	
          2.89000000	          0.11303980	         -0.22484358	          0.08403301	
          2.90000000	          0.11235877	         -0.22861561	          0.08527462	
          2.91000000	          0.11126479	         -0.23228646	          0.08554445	
          2.92000000	          0.10972777	         -0.23616025	          0.08473597	
          2.93000000	          0.10770864	         -0.24074223	          0.08274741	
          2.94000000	          0.10516190	         -0.24671578	          0.07948561	
          2.95000000	          0.10203814	         -0.25488576	          0.07486911	
          2.96000000	          0.09828333	         -0.26608332	          0.06883004	
          2.97000000	          0.09383460	         -0.28104040	          0.06131513	
          2.98000000	          0.08861467	         -0.30025331	          0.05228600	
          2.99000000	          0.08252615	         -0.32386522	          0.04171930	
          3.00000000	          0.07544841	         -0.35160353	          0.02960636	
          3.01000000	          0.06724042	         -0.38279773	          0.01595244	
          3.02000000	          0.05775076	         -0.41647185	          0.00077770	
          3.03000000	          0.04683320	         -0.45148114	         -0.01587960	
          3.04000000	          0.03436432	         -0.48666180	         -0.03395939	
          3.05000000	          0.02025814	         -0.52097069	         -0.05337659	
          3.06000000	          0.00447576	         -0.55360087	         -0.07401858	
          3.07000000	         -0.01296936	         -0.58406365	         -0.09574383	
          3.08000000	         -0.03201016	         -0.61222817	         -0.11838258	
          3.09000000	         -0.05252985	         -0.63830816	         -0.14173909	
          3.10000000	         -0.07437175	         -0.66279107	         -0.16559485	
          3.11000000	         -0.09735507	         -0.68631989	         -0.18971375	
          3.12000000	         -0.12129624	         -0.70954949	         -0.21384866	
          3.13000000	         -0.14603267	         -0.73300268	         -0.23774702	
          3.14000000	         -0.17144185	         -0.75695464	         -0.26115343	
          3.15000000	         -0.19745136	         -0.78136743	         -0.28380838	
          3.16000000	         -0.22404091	         -0.80588205	         -0.30544457	
          3.17000000	         -0.25124015	         -0.82986062	         -0.32578459	
          3.18000000	         -0.27912507	         -0.85246167	         -0.34454286	
          3.19000000	         -0.30781242	         -0.87273015	         -0.36143266	
          3.20000000	         -0.33744951	         -0.88968840	         -0.37617855	
          3.21000000	         -0.36819337	         -0.90241820	         -0.38853014	
          3.22000000	         -0.40017542	         -0.91012642	         -0.39827213	
          3.23000000	         -0.43346146	         -0.91219193	         -0.40523519	
          3.24000000	         -0.46802206	         -0.90819692	         -0.40931362	
          3.25000000	         -0.50371952	         -0.89794499	         -0.41048365	
          3.26000000	         -0.54030943	         -0.88146691	         -0.40881202	
          3.27000000	         -0.57745543	         -0.85901622	         -0.40445348	
          3.28000000	         -0.61475427	         -0.83105917	         -0.39764078	
          3.29000000	         -0.65176421	         -0.79826148	         -0.38866822	
          3.30000000	         -0.68803072	         -0.76147131	         -0.37787059	
          3.31000000	         -0.72310834	         -0.72169692	         -0.36560446	
          3.32000000	         -0.75657669	         -0.68007760	         -0.35223848	
          3.33000000	         -0.78804322	         -0.63784382	         -0.33814927	
          3.34000000	         -0.81713119	         -0.59626474	         -0.32371752	
          3.35000000	         -0.84346501	         -0.55658908	         -0.30932803	
          3.36000000	         -0.86666703	         -0.51998829	         -0.29537751	
          3.37000000	         -0.88636734	         -0.48750522	         -0.28228220	
          3.38000000	         -0.90221792	         -0.46000967	         -0.27047768	
          3.39000000	         -0.91390148	         -0.43816567	         -0.26041392	
          3.40000000	         -0.92112985	         -0.42241478	         -0.25255258	
          3.41000000	         -0.92363519	         -0.41297523	         -0.24736820	
          3.42000000	         -0.92116639	         -0.40985160	         -0.24534844	
          3.43000000	         -0.91350474	         -0.41284405	         -0.24697581	
          3.44000000	         -0.90049904	         -0.42154835	         -0.25267452	
          3.45000000	         -0.88209574	         -0.43537030	         -0.26274629	
          3.46000000	         -0.85831508	         -0.45362016	         -0.27741892	
          3.47000000	         -0.82910894	         -0.47581641	         -0.29714588	
          3.48000000	         -0.79463505	         -0.50125806	         -0.32193350	
          3.49000000	         -0.75523262	         -0.52962042	         -0.35208659	
          3.50000000	         -0.71123754	         -0.56086357	         -0.38799899	
